<svg width="33" height="28" viewBox="0 0 33 28" fill="none" xmlns="http://www.w3.org/2000/svg">
<g id="eye 1" clip-path="url(#clip0_1_29)">
<g id="Group">
<g id="Group_2">
<path id="Vector" d="M31.9619 13.3497C31.6745 13.0102 24.8277 5.03703 16.083 5.03703C7.33833 5.03703 0.491165 13.0102 0.204118 13.3493C-0.0680394 13.6714 -0.0680394 14.1083 0.204118 14.4303C0.491165 14.7698 7.33833 22.743 16.083 22.743C24.8277 22.743 31.6745 14.7698 31.9619 14.4306C32.2344 14.1086 32.2344 13.6714 31.9619 13.3497ZM16.083 20.9113C9.64162 20.9113 4.0627 15.6194 2.41122 13.8894C4.06056 12.1578 9.6278 6.86867 16.083 6.86867C22.5241 6.86867 28.1026 12.1597 29.7548 13.8906C28.1054 15.6221 22.5382 20.9113 16.083 20.9113Z" fill="#8E8E8E"/>
</g>
</g>
<g id="Group_3">
<g id="Group_4">
<path id="Vector_2" d="M16.0831 8.39506C12.5748 8.39506 9.72046 10.8602 9.72046 13.89C9.72046 16.9199 12.5748 19.385 16.0831 19.385C19.5913 19.385 22.4457 16.9199 22.4457 13.89C22.4457 10.8602 19.5913 8.39506 16.0831 8.39506ZM16.0831 17.5533C13.7441 17.5533 11.8414 15.91 11.8414 13.89C11.8414 11.8701 13.7441 10.2268 16.0831 10.2268C18.422 10.2268 20.3247 11.8701 20.3247 13.89C20.3247 15.91 18.422 17.5533 16.0831 17.5533Z" fill="#8E8E8E"/>
</g>
</g>
</g>
<defs>
<clipPath id="clip0_1_29">
<rect width="32.1663" height="27.78" fill="white"/>
</clipPath>
</defs>
</svg>
