<svg width="41" height="40" viewBox="0 0 41 40" fill="none" xmlns="http://www.w3.org/2000/svg">
<g id="mingcute:profile-line" clip-path="url(#clip0_3_330)">
<g id="Group">
<path id="Vector" fill-rule="evenodd" clip-rule="evenodd" d="M33.7117 5C34.5958 5 35.4436 5.35119 36.0688 5.97631C36.6939 6.60143 37.0451 7.44928 37.0451 8.33333V31.6667C37.0451 32.5507 36.6939 33.3986 36.0688 34.0237C35.4436 34.6488 34.5958 35 33.7117 35H7.04506C6.16101 35 5.31316 34.6488 4.68804 34.0237C4.06292 33.3986 3.71173 32.5507 3.71173 31.6667V8.33333C3.71173 7.44928 4.06292 6.60143 4.68804 5.97631C5.31316 5.35119 6.16101 5 7.04506 5H33.7117ZM33.7117 8.33333H7.04506V31.6667H33.7117V8.33333ZM28.7117 25C29.1365 25.0005 29.5451 25.1631 29.854 25.4547C30.1629 25.7464 30.3488 26.1449 30.3737 26.569C30.3986 26.9931 30.2606 27.4106 29.988 27.7364C29.7153 28.0621 29.3286 28.2715 28.9067 28.3217L28.7117 28.3333H12.0451C11.6203 28.3329 11.2117 28.1702 10.9028 27.8786C10.5939 27.587 10.408 27.1884 10.3831 26.7643C10.3582 26.3403 10.4962 25.9227 10.7688 25.5969C11.0415 25.2712 11.4282 25.0618 11.8501 25.0117L12.0451 25H28.7117ZM17.0451 11.6667C17.9291 11.6667 18.777 12.0179 19.4021 12.643C20.0272 13.2681 20.3784 14.1159 20.3784 15V18.3333C20.3784 19.2174 20.0272 20.0652 19.4021 20.6904C18.777 21.3155 17.9291 21.6667 17.0451 21.6667H13.7117C12.8277 21.6667 11.9798 21.3155 11.3547 20.6904C10.7296 20.0652 10.3784 19.2174 10.3784 18.3333V15C10.3784 14.1159 10.7296 13.2681 11.3547 12.643C11.9798 12.0179 12.8277 11.6667 13.7117 11.6667H17.0451ZM28.7117 18.3333C29.1538 18.3333 29.5777 18.5089 29.8902 18.8215C30.2028 19.134 30.3784 19.558 30.3784 20C30.3784 20.442 30.2028 20.8659 29.8902 21.1785C29.5777 21.4911 29.1538 21.6667 28.7117 21.6667H23.7117C23.2697 21.6667 22.8458 21.4911 22.5332 21.1785C22.2207 20.8659 22.0451 20.442 22.0451 20C22.0451 19.558 22.2207 19.134 22.5332 18.8215C22.8458 18.5089 23.2697 18.3333 23.7117 18.3333H28.7117ZM17.0451 15H13.7117V18.3333H17.0451V15ZM28.7117 11.6667C29.1365 11.6671 29.5451 11.8298 29.854 12.1214C30.1629 12.413 30.3488 12.8116 30.3737 13.2357C30.3986 13.6597 30.2606 14.0773 29.988 14.4031C29.7153 14.7288 29.3286 14.9382 28.9067 14.9883L28.7117 15H23.7117C23.2869 14.9995 22.8783 14.8369 22.5695 14.5453C22.2606 14.2536 22.0747 13.8551 22.0498 13.431C22.0249 13.0069 22.1629 12.5894 22.4355 12.2636C22.7082 11.9379 23.0949 11.7285 23.5167 11.6783L23.7117 11.6667H28.7117Z" fill="#FF8504"/>
</g>
</g>
<defs>
<clipPath id="clip0_3_330">
<rect width="40" height="40" fill="white" transform="translate(0.378387)"/>
</clipPath>
</defs>
</svg>
