<svg width="42" height="40" viewBox="0 0 42 40" fill="none" xmlns="http://www.w3.org/2000/svg">
<g id="mdi:password">
<path id="Vector" d="M20.7095 28.3333C21.6114 28.3333 22.4765 27.9821 23.1143 27.357C23.7521 26.7319 24.1104 25.8841 24.1104 25C24.1104 24.1159 23.7521 23.2681 23.1143 22.643C22.4765 22.0179 21.6114 21.6667 20.7095 21.6667C19.8075 21.6667 18.9425 22.0179 18.3047 22.643C17.6669 23.2681 17.3086 24.1159 17.3086 25C17.3086 25.8841 17.6669 26.7319 18.3047 27.357C18.9425 27.9821 19.8075 28.3333 20.7095 28.3333ZM30.9122 13.3333C31.8141 13.3333 32.6792 13.6845 33.317 14.3096C33.9548 14.9348 34.3131 15.7826 34.3131 16.6667V33.3333C34.3131 34.2174 33.9548 35.0652 33.317 35.6904C32.6792 36.3155 31.8141 36.6667 30.9122 36.6667H10.5068C9.60479 36.6667 8.73976 36.3155 8.10197 35.6904C7.46417 35.0652 7.10587 34.2174 7.10587 33.3333V16.6667C7.10587 15.7826 7.46417 14.9348 8.10197 14.3096C8.73976 13.6845 9.60479 13.3333 10.5068 13.3333H12.2072V10C12.2072 7.78987 13.103 5.67025 14.6975 4.10745C16.292 2.54465 18.4545 1.66667 20.7095 1.66667C21.826 1.66667 22.9316 1.88222 23.9631 2.30101C24.9947 2.7198 25.932 3.33363 26.7215 4.10745C27.511 4.88127 28.1372 5.79993 28.5645 6.81098C28.9918 7.82202 29.2117 8.90566 29.2117 10V13.3333H30.9122ZM20.7095 5.00001C19.3565 5.00001 18.059 5.52679 17.1023 6.46447C16.1456 7.40215 15.6081 8.67392 15.6081 10V13.3333H25.8108V10C25.8108 8.67392 25.2734 7.40215 24.3167 6.46447C23.36 5.52679 22.0624 5.00001 20.7095 5.00001Z" fill="#33343F"/>
</g>
</svg>
